<svg id="Layer_1" data-name="Layer 1" xmlns="http://www.w3.org/2000/svg" viewBox="0 0 236.59 56.18"><defs><style>.cls-1{fill:#323694;}.cls-2{fill:#00b4ae;}</style></defs><path class="cls-1" d="M43.59,40H38.82V14.3h4.77Z" transform="translate(-6.29 -7.2)"/><path class="cls-1" d="M62.63,40H57.92V29.23a3.5,3.5,0,1,0-7,0V40h-4.7V21.57h4.7v1.6a5.49,5.49,0,0,1,4.32-2.1c3.74,0,7.38,2.57,7.38,8Z" transform="translate(-6.29 -7.2)"/><path class="cls-1" d="M74.5,35.72V40H70c-3.28,0-4.71-1.74-4.71-4.7V17.4H70v4.17H74.5v4.24H70v8.45c0,.85.21,1.46,1.35,1.46Z" transform="translate(-6.29 -7.2)"/><path class="cls-1" d="M80.7,32v.11a3.27,3.27,0,0,0,3.49,3.6,3.2,3.2,0,0,0,3.24-2h4.78c-.75,3.85-3.53,6.27-8,6.27-5.28,0-8.2-3.35-8.2-8.45V29.16c0-5.09,2.92-8.45,8.2-8.45s8.2,3.36,8.2,8.45V32Zm0-3.92v0h7v0A3.17,3.17,0,0,0,84.19,25,3.22,3.22,0,0,0,80.7,28.09Z" transform="translate(-6.29 -7.2)"/><path class="cls-1" d="M99.8,40H95.1V21.57h4.7v2a4.55,4.55,0,0,1,4.28-2.32h1.42v4.6h-2.21a3.3,3.3,0,0,0-3.49,3.56Z" transform="translate(-6.29 -7.2)"/><path class="cls-1" d="M107.76,31.73h4.92A4,4,0,0,0,117,35.22c2.11,0,3.57-.78,3.57-2.49,0-1.39-.82-2.18-2.57-2.64L113.79,29a7.13,7.13,0,0,1-5.71-7.38c0-5,3.92-7.27,8.27-7.27,5,0,8.09,2.92,8.63,7.16h-4.92c-.43-1.67-2.18-2.42-3.78-2.42-2,0-3.42.78-3.42,2.53,0,1.46,1.14,2.1,2.49,2.46l4.07,1.1c3.85,1,5.91,3.39,5.91,7.6,0,4.49-2.92,7.23-8.34,7.23S108,36.68,107.76,31.73Z" transform="translate(-6.29 -7.2)"/><path class="cls-1" d="M136.73,41.6c-1,2.78-1.28,4.81-4.56,4.81h-3.49V42.17h2a1.15,1.15,0,0,0,1.25-.82l.53-1.5-6.56-18.39h5l4.09,11.73L139,21.46h5Z" transform="translate(-6.29 -7.2)"/><path class="cls-1" d="M143.54,33.65h4.71c.21,1.43,1.88,2.07,3.42,2.07.92,0,2.31-.21,2.31-1.43,0-.74-.53-1.17-1.64-1.42L148.5,32A5.54,5.54,0,0,1,144,26.38c0-3.6,3.24-5.67,7-5.67s6.81,1.79,7.13,6h-4.81A2.28,2.28,0,0,0,150.85,25c-1.36,0-2.14.53-2.18,1.39s.64,1.17,1.43,1.35l4.13.93a5.36,5.36,0,0,1,4.46,5.66c0,4.1-3.32,5.67-7.17,5.67S143.72,38,143.54,33.65Z" transform="translate(-6.29 -7.2)"/><path class="cls-1" d="M176.18,32v.11a3.27,3.27,0,0,0,3.49,3.6,3.2,3.2,0,0,0,3.24-2h4.78c-.75,3.85-3.53,6.27-8,6.27-5.28,0-8.2-3.35-8.2-8.45V29.16c0-5.09,2.92-8.45,8.2-8.45s8.2,3.36,8.2,8.45V32Zm0-3.92v0h6.95v0A3.17,3.17,0,0,0,179.67,25,3.22,3.22,0,0,0,176.18,28.09Z" transform="translate(-6.29 -7.2)"/><path class="cls-1" d="M206.76,40h-4.71V29.23a3.39,3.39,0,1,0-6.77,0V40h-4.7V21.57h4.7V23.1a5.3,5.3,0,0,1,4.17-2,5.91,5.91,0,0,1,5,2.43,6.94,6.94,0,0,1,5.73-2.43c4.67,0,8.09,2.6,8.09,8V40h-4.7V29.23a3.39,3.39,0,1,0-6.77,0Z" transform="translate(-6.29 -7.2)"/><path class="cls-1" d="M220,33.65h4.7c.22,1.43,1.89,2.07,3.42,2.07.93,0,2.32-.21,2.32-1.43,0-.74-.53-1.17-1.64-1.42L225,32a5.54,5.54,0,0,1-4.52-5.63c0-3.6,3.24-5.67,7-5.67s6.8,1.79,7.13,6h-4.82A2.28,2.28,0,0,0,227.32,25c-1.35,0-2.13.53-2.17,1.39s.64,1.17,1.43,1.35l4.13.93a5.36,5.36,0,0,1,4.46,5.66c0,4.1-3.32,5.67-7.17,5.67S220.2,38,220,33.65Z" transform="translate(-6.29 -7.2)"/><path class="cls-1" d="M169.48,35.72V40H165c-3.28,0-4.7-1.74-4.7-4.7V17.4H165v4.17h4.53v4.24H165v8.45c0,.85.22,1.46,1.36,1.46Z" transform="translate(-6.29 -7.2)"/><polygon class="cls-1" points="7.05 7.88 0 4.36 0 49.13 14.1 56.18 14.1 48.3 7.05 44.77 7.05 7.88"/><polygon class="cls-2" points="14.1 48.3 21.16 51.83 21.16 7.06 7.05 0 7.05 7.88 14.1 11.41 14.1 48.3"/><path class="cls-1" d="M239.94,20.65A2.93,2.93,0,1,1,237,23.58,2.93,2.93,0,0,1,239.94,20.65Zm0,5.34a2.41,2.41,0,1,0-2.4-2.41A2.4,2.4,0,0,0,239.94,26Zm1.42-.71-.86-1.46a.9.9,0,0,0,.75-1,.94.94,0,0,0-1.06-1h-1.38v3.4h.55V23.84h.53l.85,1.44Zm-2-2.85h.83c.3,0,.49.15.49.44s-.19.43-.49.43h-.83Z" transform="translate(-6.29 -7.2)"/><path class="cls-1" d="M38.61,58.82V49h3.7A3.4,3.4,0,0,1,46,52.64v2.55a3.4,3.4,0,0,1-3.7,3.63Zm5.52-6.18a1.69,1.69,0,0,0-1.82-1.76H40.49V57h1.82a1.69,1.69,0,0,0,1.82-1.77Z" transform="translate(-6.29 -7.2)"/><path class="cls-1" d="M47.24,54.71a3.22,3.22,0,1,1,6.44,0v.93a3.22,3.22,0,1,1-6.44,0Zm4.59-.23a1.37,1.37,0,1,0-2.74,0v1.4a1.37,1.37,0,1,0,2.74,0Z" transform="translate(-6.29 -7.2)"/><path class="cls-1" d="M61.32,56.19A2.94,2.94,0,0,1,58.13,59a3,3,0,0,1-3.22-3.32v-.93a3,3,0,0,1,3.22-3.32,2.94,2.94,0,0,1,3.19,2.78H59.48a1.27,1.27,0,0,0-1.35-1.11,1.29,1.29,0,0,0-1.37,1.42v1.4a1.28,1.28,0,0,0,1.37,1.41,1.24,1.24,0,0,0,1.35-1.1Z" transform="translate(-6.29 -7.2)"/><path class="cls-1" d="M67.08,55.75V51.59h1.85v7.23H67.08V58a2,2,0,0,1-1.75.93,2.81,2.81,0,0,1-2.76-3.14V51.59h1.85v4.16a1.33,1.33,0,1,0,2.66,0Z" transform="translate(-6.29 -7.2)"/><path class="cls-1" d="M77,58.82H75.11V54.6a1.33,1.33,0,1,0-2.66,0v4.22H70.6V51.59h1.85v.6a2.08,2.08,0,0,1,1.64-.8,2.32,2.32,0,0,1,2,1,2.75,2.75,0,0,1,2.25-1,2.91,2.91,0,0,1,3.18,3.14v4.29H79.62V54.6a1.33,1.33,0,1,0-2.66,0Z" transform="translate(-6.29 -7.2)"/><path class="cls-1" d="M84.67,55.83v.05a1.29,1.29,0,0,0,1.38,1.41,1.26,1.26,0,0,0,1.27-.8H89.2A2.94,2.94,0,0,1,86.05,59a3,3,0,0,1-3.23-3.32v-.93a3.23,3.23,0,1,1,6.45,0v1.12Zm0-1.54v0H87.4v0a1.24,1.24,0,0,0-1.35-1.23A1.27,1.27,0,0,0,84.67,54.29Z" transform="translate(-6.29 -7.2)"/><path class="cls-1" d="M97.15,58.82H95.3V54.6a1.37,1.37,0,1,0-2.74,0v4.22H90.71V51.59h1.85v.63a2.14,2.14,0,0,1,1.69-.83,2.87,2.87,0,0,1,2.9,3.14Z" transform="translate(-6.29 -7.2)"/><path class="cls-1" d="M102.69,57.15v1.67h-1.78A1.64,1.64,0,0,1,99.06,57V53.26H98V51.59h1V50h1.85v1.64h1.78v1.67h-1.78v3.32c0,.33.09.57.54.57Z" transform="translate(-6.29 -7.2)"/><path class="cls-1" d="M108.24,54.11a1.4,1.4,0,0,0-2.62-.25h-1.87a2.93,2.93,0,0,1,3.14-2.47,3,3,0,0,1,3.22,3.32v4.11h-1.85V58a2.12,2.12,0,0,1-2,1c-1.66,0-2.64-.81-2.64-2.14A2.09,2.09,0,0,1,105,54.66a11.31,11.31,0,0,1,3.25-.53Zm-2.78,2.49c0,.36.27.73,1.1.73a1.51,1.51,0,0,0,1.7-1.44v-.24a9.25,9.25,0,0,0-2.41.34A.59.59,0,0,0,105.46,56.6Z" transform="translate(-6.29 -7.2)"/><path class="cls-1" d="M115.66,57.15v1.67h-1.78A1.64,1.64,0,0,1,112,57V53.26h-1V51.59h1V50h1.85v1.64h1.78v1.67h-1.78v3.32c0,.33.08.57.53.57Z" transform="translate(-6.29 -7.2)"/><path class="cls-1" d="M118.69,50.65h-1.85V49h1.85Zm0,8.17h-1.85V51.59h1.85Z" transform="translate(-6.29 -7.2)"/><path class="cls-1" d="M120.15,54.71a3.22,3.22,0,1,1,6.44,0v.93a3.22,3.22,0,1,1-6.44,0Zm4.59-.23a1.37,1.37,0,1,0-2.74,0v1.4a1.37,1.37,0,1,0,2.74,0Z" transform="translate(-6.29 -7.2)"/><path class="cls-1" d="M134.49,58.82h-1.85V54.6a1.38,1.38,0,1,0-2.75,0v4.22H128V51.59h1.85v.63a2.15,2.15,0,0,1,1.7-.83,2.87,2.87,0,0,1,2.9,3.14Z" transform="translate(-6.29 -7.2)"/></svg>